<svg width="22" height="22" viewBox="0 0 22 22" fill="none" xmlns="http://www.w3.org/2000/svg">
<path d="M11.1634 1.15812C11.2708 1.1732 11.3757 1.20286 11.4749 1.24674L11.619 1.32284L11.7515 1.41862C11.8349 1.48808 11.9079 1.56893 11.9691 1.65853L12.0523 1.79907V1.79997L14.1694 6.08879C14.2596 6.27136 14.3932 6.42913 14.5579 6.54891C14.7225 6.66858 14.9134 6.74666 15.1147 6.77629L19.8503 7.46916H19.8494C20.0118 7.49269 20.167 7.54995 20.305 7.63656L20.4375 7.73324L20.5548 7.84692C20.6273 7.92783 20.6879 8.01868 20.7356 8.11637L20.7974 8.26766L20.8367 8.42611C20.8651 8.58658 20.8599 8.7519 20.8206 8.9113C20.7813 9.07078 20.7092 9.2201 20.6094 9.34904L20.5002 9.47079L17.0752 12.8053C16.9292 12.9476 16.8205 13.1236 16.7574 13.3174C16.6944 13.5111 16.6794 13.7173 16.7135 13.9181L17.5219 18.6303H17.521C17.5584 18.8458 17.5358 19.0675 17.4538 19.2703C17.3715 19.4743 17.2334 19.6513 17.0555 19.7806C16.8775 19.9099 16.6662 19.9864 16.4468 20.0017C16.2275 20.0169 16.0079 19.9698 15.8139 19.8665V19.8656L11.5841 17.6429C11.4039 17.5483 11.2032 17.4988 10.9996 17.4988C10.7961 17.4988 10.5952 17.5474 10.415 17.642L10.4159 17.6429L6.1844 19.8665C5.99035 19.9692 5.77139 20.0164 5.5524 20.0008C5.3335 19.9852 5.12295 19.9088 4.94546 19.7797C4.76795 19.6506 4.6303 19.4739 4.548 19.2703C4.48627 19.1176 4.45742 18.9539 4.46296 18.7905L4.47997 18.6276L5.28742 13.9198C5.3219 13.7189 5.30658 13.5122 5.24356 13.3183C5.18047 13.1243 5.07193 12.9477 4.92577 12.8053V12.8062L1.5008 9.47168L1.5017 9.47079C1.34472 9.31843 1.23241 9.12626 1.17943 8.91398C1.12623 8.70074 1.13398 8.47671 1.20181 8.26766C1.26965 8.05863 1.3952 7.87281 1.56347 7.73145C1.73096 7.5908 1.93426 7.49941 2.15071 7.46826L6.88532 6.77629C7.08699 6.74695 7.27904 6.66957 7.44392 6.5498C7.60874 6.43007 7.74128 6.27143 7.83153 6.08879L9.94864 1.79997V1.79907C10.0457 1.60313 10.1961 1.43816 10.3819 1.32284L10.526 1.24674C10.6749 1.18094 10.8365 1.14648 11.0005 1.14648L11.1634 1.15812ZM9.06509 6.69751C8.87615 7.07997 8.59652 7.41092 8.25137 7.66162C7.90641 7.91219 7.50595 8.07548 7.08406 8.13696L2.75048 8.76986L5.88451 11.8206C6.19047 12.1186 6.41936 12.4869 6.55142 12.8931C6.68338 13.299 6.71487 13.7309 6.64273 14.1517L5.90331 18.4611L9.77587 16.4255L9.9191 16.3556C10.2582 16.2029 10.6265 16.1238 10.9996 16.1238C11.426 16.1238 11.8467 16.2272 12.2242 16.4255L16.0976 18.4611L15.3582 14.1508C15.2864 13.7301 15.3175 13.298 15.4495 12.8922C15.5816 12.4864 15.8099 12.1185 16.1156 11.8206H16.1164L19.2478 8.77075L14.916 8.13696H14.9151C14.4936 8.07504 14.0932 7.91129 13.7487 7.66073C13.4042 7.41012 13.1255 7.07941 12.9368 6.69751L11.0005 2.77482L9.06509 6.69751Z" fill="#767A83"/>
</svg>
