<svg width="22" height="22" viewBox="0 0 22 22" fill="none" xmlns="http://www.w3.org/2000/svg">
<path d="M10.5649 2.1043C10.6051 2.02314 10.6672 1.95482 10.7441 1.90706C10.821 1.8593 10.9098 1.83398 11.0003 1.83398C11.0909 1.83398 11.1797 1.8593 11.2566 1.90706C11.3335 1.95482 11.3956 2.02314 11.4358 2.1043L13.5533 6.39339C13.6928 6.67569 13.8987 6.91993 14.1533 7.10514C14.408 7.29034 14.7038 7.41099 15.0153 7.45672L19.7508 8.14972C19.8406 8.16272 19.9249 8.20057 19.9942 8.25899C20.0636 8.3174 20.1152 8.39406 20.1432 8.48028C20.1712 8.5665 20.1746 8.65884 20.1529 8.74687C20.1312 8.8349 20.0853 8.91509 20.0203 8.97839L16.5957 12.3132C16.3698 12.5333 16.2008 12.805 16.1033 13.1049C16.0057 13.4048 15.9825 13.7239 16.0356 14.0347L16.8441 18.7464C16.8599 18.8361 16.8502 18.9284 16.8161 19.0128C16.782 19.0973 16.7249 19.1704 16.6512 19.224C16.5775 19.2775 16.4902 19.3092 16.3994 19.3155C16.3085 19.3219 16.2177 19.3025 16.1373 19.2597L11.9042 17.0341C11.6253 16.8876 11.3149 16.8111 10.9999 16.8111C10.6848 16.8111 10.3745 16.8876 10.0956 17.0341L5.86335 19.2597C5.78298 19.3023 5.6923 19.3214 5.60159 19.315C5.51089 19.3085 5.42382 19.2767 5.35028 19.2233C5.27675 19.1698 5.21969 19.0967 5.18562 19.0124C5.15154 18.9281 5.1418 18.8359 5.15751 18.7464L5.9651 14.0356C6.01844 13.7246 5.99533 13.4053 5.89776 13.1053C5.80018 12.8052 5.63107 12.5334 5.40501 12.3132L1.98035 8.9793C1.91489 8.91608 1.86851 8.83575 1.84648 8.74745C1.82445 8.65916 1.82766 8.56645 1.85575 8.47989C1.88384 8.39334 1.93568 8.31641 2.00535 8.25787C2.07503 8.19933 2.15974 8.16154 2.24985 8.1488L6.98443 7.45672C7.29633 7.41134 7.59254 7.29086 7.84755 7.10562C8.10256 6.92039 8.30874 6.67597 8.44835 6.39339L10.5649 2.1043Z" fill="#EFDE03" stroke="#EFDE03" stroke-width="1.5" stroke-linecap="round" stroke-linejoin="round"/>
</svg>
