<svg width="16" height="17" viewBox="0 0 16 17" fill="none" xmlns="http://www.w3.org/2000/svg">
<path d="M13.5 6.5V3H10C9.72386 3 9.5 2.77614 9.5 2.5C9.5 2.22386 9.72386 2 10 2H14C14.2761 2 14.5 2.22386 14.5 2.5V6.5C14.5 6.77614 14.2761 7 14 7C13.7239 7 13.5 6.77614 13.5 6.5Z" fill="#1D2433"/>
<path d="M13.6438 2.14645C13.8391 1.95118 14.1556 1.95118 14.3509 2.14645C14.5461 2.34171 14.5461 2.65822 14.3509 2.85348L7.01754 10.1868C6.82228 10.3821 6.50577 10.3821 6.31051 10.1868C6.11525 9.99155 6.11525 9.67504 6.31051 9.47978L13.6438 2.14645Z" fill="#1D2433"/>
<path d="M1.5 13.1667V5.83333C1.5 5.3471 1.69329 4.88093 2.03711 4.53711C2.38093 4.19329 2.8471 4 3.33333 4H7.33333C7.60948 4 7.83333 4.22386 7.83333 4.5C7.83333 4.77614 7.60948 5 7.33333 5H3.33333C3.11232 5 2.90042 5.08786 2.74414 5.24414C2.58786 5.40042 2.5 5.61232 2.5 5.83333V13.1667C2.5 13.3877 2.58786 13.5996 2.74414 13.7559C2.90042 13.9121 3.11232 14 3.33333 14H10.6667C10.8877 14 11.0996 13.9121 11.2559 13.7559C11.4121 13.5996 11.5 13.3877 11.5 13.1667V9.16667C11.5 8.89052 11.7239 8.66667 12 8.66667C12.2761 8.66667 12.5 8.89052 12.5 9.16667V13.1667C12.5 13.6529 12.3067 14.1191 11.9629 14.4629C11.6191 14.8067 11.1529 15 10.6667 15H3.33333C2.8471 15 2.38093 14.8067 2.03711 14.4629C1.69329 14.1191 1.5 13.6529 1.5 13.1667Z" fill="#1D2433"/>
</svg>
