<svg width="24" height="25" viewBox="0 0 24 25" fill="none" xmlns="http://www.w3.org/2000/svg">
<path d="M20.25 5.5C20.25 4.80964 19.6904 4.25 19 4.25H5C4.30964 4.25 3.75 4.80964 3.75 5.5V19.5C3.75 20.1904 4.30964 20.75 5 20.75H19C19.6904 20.75 20.25 20.1904 20.25 19.5V5.5ZM21.75 19.5C21.75 21.0188 20.5188 22.25 19 22.25H5C3.48122 22.25 2.25 21.0188 2.25 19.5V5.5C2.25 3.98122 3.48122 2.75 5 2.75H19C20.5188 2.75 21.75 3.98122 21.75 5.5V19.5Z" fill="#2C6499"/>
<path d="M21 8.75C21.4142 8.75 21.75 9.08579 21.75 9.5C21.75 9.91421 21.4142 10.25 21 10.25H3C2.58579 10.25 2.25 9.91421 2.25 9.5C2.25 9.08579 2.58579 8.75 3 8.75H21Z" fill="#2C6499"/>
<path d="M8.25 21.5V9.5C8.25 9.08579 8.58579 8.75 9 8.75C9.41421 8.75 9.75 9.08579 9.75 9.5V21.5C9.75 21.9142 9.41421 22.25 9 22.25C8.58579 22.25 8.25 21.9142 8.25 21.5Z" fill="#2C6499"/>
</svg>
